<?xml version="1.0" standalone="no"?><!DOCTYPE svg PUBLIC "-//W3C//DTD SVG 1.1//EN" "http://www.w3.org/Graphics/SVG/1.1/DTD/svg11.dtd"><svg t="1508910964982" class="icon" style="" viewBox="0 0 4563 1024" version="1.1" xmlns="http://www.w3.org/2000/svg" p-id="3563" xmlns:xlink="http://www.w3.org/1999/xlink" width="356.484375" height="80"><defs><style type="text/css"></style></defs><path d="M4562.576871 0 3420.887685 0l-1128.411943 0-26.400813 0L1136.479712 0 0 0l0 987.986663c90.143871 78.126737 263.547117 19.885129 264.914796-86.102303 4.056935-108.599853-56.858562-124.443414-78.065269-129.80656-21.222074-9.235674-98.180906-9.235674-91.51155 59.609287 18.609654 67.569485 80.862095 38.448681 80.862095 38.448681 5.194106 54.246141-53.078236 58.287709-53.078236 58.287709-80.708423 10.557252-142.960865-87.454615-78.096003-172.250708 66.29401-86.040834 152.457781-41.030368 152.457781-41.030368l-8.037035-58.287709c8.037035-107.232174 99.318077-136.39908 170.82156-115.177006 72.932631 19.885129 117.896996 86.0101 72.932631 152.273375-46.531818 66.217174-108.599853 7.975566-108.599853 7.975566 23.880596 3.980099 72.702123-29.151538 51.41858-80.800626-40.984266-43.704257-96.459782-25.125337-112.487749 18.486716-15.843561 43.79646-11.801993 137.828227 107.355111 161.631987 116.560052 23.819127 152.365578-67.569485 152.365578-67.569485 13.261875 30.473116 128.362045 98.011867 198.682255 38.40258 70.10507-59.547818 35.575019-144.390013-13.446281-164.152205-48.836894-19.885129-88.699356 25.10997-72.640654 56.858562 13.169672 31.840795 51.633721 37.142471 51.633721 37.142471-47.653622 44.979733-94.093236-11.955665-94.093236-11.955665s-62.31391-101.930497 37.034901-145.60402c165.596719-31.840795 194.594586 95.245775 194.594586 95.245775 10.649455-95.245775 111.350578-107.20144 111.350578-107.20144 131.174239-10.649455 137.828227 76.759058 136.368345 103.252075-1.152538 23.880596-9.174206 76.881996-71.457382 78.188206-60.854028 3.918631-55.629187-35.728691-55.629187-35.728691 27.768492 11.848095 42.459515 1.30621 44.979733-2.673889 29.289843-26.462282 5.424614-101.991966-58.272342-90.082402-60.823294 6.607887-107.324377 108.599853-23.773026 180.164805 83.50525 71.472749 160.172105 10.557252 160.172105 10.557252 6.59252 152.365578 61.069169 169.576819 67.738524 169.576819l0 2.61242 0-2.61242c5.132638 0 59.378779-17.21124 67.415814-169.576819 0 0 75.545051 60.915497 159.019567-10.557252 83.259375-71.564952 37.050268-173.556918-25.248275-180.164805-60.854028-11.909564-86.102303 63.62012-57.089069 90.082402 4.041568 3.980099 16.058702 14.537351 43.919397 2.673889 0 0 7.745058 39.662689-53.10897 35.728691-62.283176-1.30621-70.058968-54.30761-71.488116-78.188206-2.61242-26.493016 3.980099-113.90153 135.215807-103.252075 0 0 100.50135 11.955665 111.058602 107.20144 0 0 27.860695-127.101936 194.656055-95.245775 100.731857 43.673522 37.265409 145.60402 37.265409 145.60402s-46.40888 56.935398-94.12397 11.955665c0 0 38.433314-5.28631 53.139704-37.142471 13.169672-31.748592-25.248275-76.759058-74.361778-56.858562-49.052035 19.762192-83.320844 104.619754-13.169672 164.152205 71.426647 59.609287 186.849528-7.929464 198.651521-38.40258 0 0 35.836261 91.388613 153.61032 67.569485 117.866262-23.80376 123.060368-117.835527 105.895229-161.631987-15.843561-43.612054-71.472749-62.190973-111.12007-18.486716-23.880596 51.633721 26.41618 84.780726 51.664455 80.800626 0 0-63.696956 58.241608-109.967532-7.975566-45.071936-66.263275 0-132.372879 71.457382-152.273375 74.085169-21.222074 164.22904 7.944831 170.82156 115.177006l-6.607887 58.287709c0 0 87.31631-45.010467 152.457781 41.030368 66.0174 84.796093 3.764959 182.80796-76.91273 172.250708 0 0-59.70149-4.041568-55.706023-58.287709 0 0 63.743058 29.136171 83.474516-38.448681 6.669356-68.844961-71.457382-68.844961-92.664088-59.609287-19.823661 5.363145-83.597453 21.19134-78.126737 129.80656 2.581686 107.293643 181.440281 164.22904 271.353644 82.106837l0-11.924931 0 11.924931c91.51155 82.106837 270.370145 25.186806 274.119736-82.106837 2.842928-108.599853-58.241608-124.443414-80.677689-129.80656-21.252808-9.235674-97.950398-9.235674-92.725557 59.609287 19.823661 67.569485 83.551351 38.448681 83.551351 38.448681 3.980099 54.246141-55.752125 58.287709-55.752125 58.287709-80.61622 10.557252-141.746858-87.454615-76.851261-172.250708 64.895596-86.040834 152.365578-41.030368 152.365578-41.030368l-5.455348-58.287709c5.455348-107.232174 96.705657-136.39908 169.684389-115.177006 71.457382 19.885129 116.529317 86.0101 71.457382 152.273375-45.10267 66.217174-107.355111 7.975566-107.355111 7.975566 22.728058 3.980099 74.361778-29.151538 50.481183-80.800626-39.847095-43.704257-95.276509-25.125337-112.487749 18.486716-16.058702 43.79646-10.680189 137.828227 104.558285 161.631987 120.524784 23.819127 156.053701-67.569485 156.053701-67.569485 12.155438 30.473116 127.255608 98.011867 197.529717 38.40258 71.488116-59.547818 35.605753-144.390013-11.9864-164.152205-50.327511-19.885129-88.776192 25.10997-74.069802 56.858562 13.154305 31.840795 53.0014 37.142471 53.0014 37.142471-47.868762 44.979733-95.460915-11.955665-95.460915-11.955665s-62.09877-101.930497 38.417947-145.60402c165.596719-31.840795 193.457415 95.245775 193.457415 95.245775 10.603353-95.245775 112.549218-107.20144 112.549218-107.20144 128.362045-10.649455 136.383712 76.759058 136.383712 103.252075-2.61242 23.880596-11.801993 76.881996-72.932631 78.188206-60.854028 3.918631-52.878462-35.728691-52.878462-35.728691 26.462282 11.848095 41.091836 1.30621 43.704257-2.673889 29.228374-26.462282 3.949365-101.991966-58.333811-90.082402-60.884763 6.607887-108.50765 108.599853-23.834494 180.164805 83.551351 71.472749 160.233574 10.557252 160.233574 10.557252 6.561785 152.365578 59.670755 169.576819 66.263275 169.576819l0 2.61242 0-2.61242c8.037035 0 58.303077-17.21124 66.340111-169.576819 0 0 78.065269 60.915497 161.324644-10.557252 83.566719-71.564952 35.882363-173.556918-23.80376-180.164805-63.435714-11.909564-87.31631 63.62012-58.241608 90.082402 2.842928 3.980099 15.997233 14.537351 42.49025 2.673889 0 0 7.944831 39.662689-52.878462 35.728691-61.146005-1.30621-70.350945-54.30761-72.932631-78.188206-1.367679-26.493016 6.669356-113.90153 137.797493-103.252075 0 0 100.516717 11.955665 111.150805 107.20144 0 0 27.829961-127.101936 194.609953-95.245775 99.318077 43.673522 35.882363 145.60402 35.882363 145.60402s-45.071936 56.935398-94.12397 11.955665c0 0 38.417947-5.28631 54.246141-37.142471 14.629554-31.748592-26.462282-76.759058-75.545051-56.858562-47.653622 19.762192-82.076102 104.619754-11.771259 164.152205 70.10507 59.609287 185.42038-7.929464 198.651521-38.40258 0 0 35.89773 91.388613 153.61032 67.569485 117.866262-23.80376 121.923197-117.835527 105.895229-161.631987-15.751358-43.612054-71.457382-62.190973-112.487749-18.486716-22.466815 51.633721 26.431548 84.780726 51.633721 80.800626 0 0-62.252442 58.241608-107.324377-7.975566-47.684356-66.263275-2.61242-132.372879 70.258742-152.273375 71.534218-21.222074 162.81526 7.944831 169.40778 115.177006l-3.764959 58.287709c0 0 85.871795-45.010467 152.104336 41.030368 63.773792 84.796093 2.643155 182.80796-78.034534 172.250708 0 0-58.333811-4.041568-54.261509-58.287709 0 0 62.283176 29.136171 82.106837-38.448681 3.980099-68.844961-71.488116-68.844961-92.756292-59.609287-21.19134 5.363145-83.474516 21.19134-79.494416 129.80656 2.581686 105.972065 181.440281 164.22904 271.568785 83.474516L4562.546136 0 4562.576871 0z" p-id="3564" fill="#f2f7f8"></path></svg>